<svg width="657.9px" height="122px" xmlns="http://www.w3.org/2000/svg" viewBox="-78.94687499999998 14 657.89375 122" style="background: rgba(0, 0, 0, 0)" preserveAspectRatio="xMidYMid"><defs><linearGradient id="editing-outline-gradient" x1="-0.41354545764260087" x2="1.4135454576426008" y1="0.09326335692419985" y2="0.9067366430758002"><stop offset="0" stop-color="#ee4208"></stop><stop offset="1" stop-color="#4139ff"></stop></linearGradient><filter id="editing-outline" x="-100%" y="-100%" width="300%" height="300%"><feMorphology in="SourceGraphic" operator="dilate" radius="2" result="outline"></feMorphology><feComposite operator="out" in="outline" in2="SourceAlpha"></feComposite></filter></defs><g filter="url(#editing-outline)"><g transform="matrix(1.4,0,0,1.4,-63.2,162.9)"><path d="M 11.5 -45 L -2.5 -45 L 5.6 -87.2 L 19.7 -87.2 L 11.5 -45 Z M 67.2 -43.7 L 67.2 -43.7 L 67.2 -43.7 Q 59.5 -43.7 59.5 -49.7 L 59.5 -49.7 L 59.5 -49.7 Q 59.5 -52.4 60.6 -57.4 L 60.6 -57.4 L 60.6 -57.4 Q 61.7 -62.5 62.1 -64.6 L 62.1 -64.6 L 62.1 -64.6 Q 63 -69.3 63 -70.7 L 63 -70.7 L 63 -70.7 Q 63 -74 60.5 -74 L 60.5 -74 L 60.5 -74 Q 58.9 -74 57.4 -71.8 L 57.4 -71.8 L 57.4 -71.8 Q 55.9 -69.6 55.2 -65.2 L 55.2 -65.2 L 51.2 -45 L 38.7 -43.7 L 42.2 -61.1 L 42.2 -61.1 Q 42.7 -64 43.3 -67.3 L 43.3 -67.3 L 43.3 -67.3 Q 43.8 -70.5 43.8 -71.1 L 43.8 -71.1 L 43.8 -71.1 Q 43.8 -74 41.6 -74 L 41.6 -74 L 41.6 -74 Q 40.1 -74 38.5 -71.8 L 38.5 -71.8 L 38.5 -71.8 Q 36.9 -69.6 36 -65.2 L 36 -65.2 L 32.1 -45 L 19.5 -43.7 L 26.2 -77.6 L 36.7 -78.9 L 35.6 -72.5 L 35.6 -72.5 Q 37.2 -75.9 40.3 -77.4 L 40.3 -77.4 L 40.3 -77.4 Q 43.4 -78.9 48.2 -78.9 L 48.2 -78.9 L 48.2 -78.9 Q 50.9 -78.9 52.7 -77.6 L 52.7 -77.6 L 52.7 -77.6 Q 54.5 -76.2 55.1 -74.1 L 55.1 -74.1 L 55.1 -74.1 Q 56.2 -76.3 59 -77.6 L 59 -77.6 L 59 -77.6 Q 61.8 -78.9 65.2 -78.9 L 65.2 -78.9 L 65.2 -78.9 Q 68.6 -78.9 70.3 -78.2 L 70.3 -78.2 L 70.3 -78.2 Q 72 -77.5 73 -76.2 L 73 -76.2 L 73 -76.2 Q 74.7 -74 74.7 -69.9 L 74.7 -69.9 L 74.7 -69.9 Q 74.7 -65.9 73 -57.5 L 73 -57.5 L 73 -57.5 Q 72.1 -53.4 72.1 -51.9 L 72.1 -51.9 L 72.1 -51.9 Q 72.1 -50.4 73 -49.5 L 73 -49.5 L 73 -49.5 Q 73.9 -48.6 75.1 -48.5 L 75.1 -48.5 L 75.1 -48.5 Q 74.5 -46.3 72.3 -45 L 72.3 -45 L 72.3 -45 Q 70.1 -43.7 67.2 -43.7 Z M 82.8 -46.9 L 82.8 -46.9 L 82.8 -46.9 Q 81.3 -48.6 80.7 -51.2 L 80.7 -51.2 L 80.7 -51.2 Q 80 -53.8 80 -58.1 L 80 -58.1 L 80 -58.1 Q 80 -62.4 81.5 -66.3 L 81.5 -66.3 L 81.5 -66.3 Q 82.9 -70.2 85.6 -73 L 85.6 -73 L 85.6 -73 Q 91.1 -78.9 100.2 -78.9 L 100.2 -78.9 L 100.2 -78.9 Q 103.5 -78.9 105.9 -77.8 L 105.9 -77.8 L 116.8 -78.9 L 112.1 -54 L 112.1 -54 Q 111.9 -53.2 111.9 -51.8 L 111.9 -51.8 L 111.9 -51.8 Q 111.9 -50.4 112.7 -49.5 L 112.7 -49.5 L 112.7 -49.5 Q 113.6 -48.6 114.9 -48.5 L 114.9 -48.5 L 114.9 -48.5 Q 114.2 -46.3 111.9 -45 L 111.9 -45 L 111.9 -45 Q 109.6 -43.7 106.9 -43.7 L 106.9 -43.7 L 106.9 -43.7 Q 104.3 -43.7 102.6 -44.7 L 102.6 -44.7 L 102.6 -44.7 Q 100.8 -45.7 100.3 -47.4 L 100.3 -47.4 L 100.3 -47.4 Q 99.3 -45.8 97.1 -44.7 L 97.1 -44.7 L 97.1 -44.7 Q 94.9 -43.7 92 -43.7 L 92 -43.7 L 92 -43.7 Q 89.1 -43.7 86.7 -44.5 L 86.7 -44.5 L 86.7 -44.5 Q 84.3 -45.3 82.8 -46.9 Z M 96.3 -72.9 L 96.3 -72.9 L 96.3 -72.9 Q 95.6 -71.8 95 -69.8 L 95 -69.8 L 95 -69.8 Q 94.3 -67.9 93.3 -62.6 L 93.3 -62.6 L 93.3 -62.6 Q 92.2 -57.4 92.2 -53.7 L 92.2 -53.7 L 92.2 -53.7 Q 92.2 -50 92.8 -48.9 L 92.8 -48.9 L 92.8 -48.9 Q 93.4 -47.8 94.4 -47.8 L 94.4 -47.8 L 94.4 -47.8 Q 96.4 -47.8 97.9 -49.8 L 97.9 -49.8 L 97.9 -49.8 Q 99.5 -51.7 100 -55.2 L 100 -55.2 L 103.4 -73.9 L 103.4 -73.9 Q 102.1 -75.1 100.5 -75.1 L 100.5 -75.1 L 100.5 -75.1 Q 98.9 -75.1 98 -74.6 L 98 -74.6 L 98 -74.6 Q 97.1 -74.1 96.3 -72.9 Z M 124.5 -71.8 L 124.5 -71.8 L 124.5 -71.8 Q 126.7 -74.8 130 -76.9 L 130 -76.9 L 130 -76.9 Q 133.3 -78.9 137.3 -78.9 L 137.3 -78.9 L 137.3 -78.9 Q 141.4 -78.9 143.3 -77.6 L 143.3 -77.6 L 155.8 -78.9 L 151.5 -54.3 L 151.5 -54.3 Q 149.2 -41.8 144.5 -36.9 L 144.5 -36.9 L 144.5 -36.9 Q 140 -32.2 131.1 -32.2 L 131.1 -32.2 L 131.1 -32.2 Q 124.4 -32.2 120.6 -34.3 L 120.6 -34.3 L 120.6 -34.3 Q 116.7 -36.4 116.7 -39.9 L 116.7 -39.9 L 116.7 -39.9 Q 116.7 -42.6 118.7 -44.1 L 118.7 -44.1 L 118.7 -44.1 Q 120.7 -45.6 123.8 -45.6 L 123.8 -45.6 L 123.8 -45.6 Q 126.5 -45.6 128.5 -44.4 L 128.5 -44.4 L 128.5 -44.4 Q 129.7 -43.7 130.3 -42.8 L 130.3 -42.8 L 130.3 -42.8 Q 128.8 -41.5 128.8 -39.4 L 128.8 -39.4 L 128.8 -39.4 Q 128.8 -36.7 131.4 -36.7 L 131.4 -36.7 L 131.4 -36.7 Q 135.7 -36.7 138.1 -46.8 L 138.1 -46.8 L 138.1 -46.8 Q 138.8 -49.5 139.4 -52.3 L 139.4 -52.3 L 139.4 -52.3 Q 136.5 -48.8 130 -48.8 L 130 -48.8 L 130 -48.8 Q 125.4 -48.8 122.8 -51 L 122.8 -51 L 122.8 -51 Q 120.2 -53.1 120.2 -58.3 L 120.2 -58.3 L 120.2 -58.3 Q 120.2 -61.4 121.3 -65.1 L 121.3 -65.1 L 121.3 -65.1 Q 122.4 -68.7 124.5 -71.8 Z M 132.9 -58.1 L 132.9 -58.1 L 132.9 -58.1 Q 132.9 -53.7 135.1 -53.7 L 135.1 -53.7 L 135.1 -53.7 Q 136.6 -53.7 138.1 -55.4 L 138.1 -55.4 L 138.1 -55.4 Q 139.3 -56.7 139.7 -58.7 L 139.7 -58.7 L 143 -75.1 L 143 -75.1 Q 142.7 -75.2 142.3 -75.3 L 142.3 -75.3 L 142.3 -75.3 Q 141.7 -75.6 140.9 -75.6 L 140.9 -75.6 L 140.9 -75.6 Q 137 -75.6 134.7 -69.2 L 134.7 -69.2 L 134.7 -69.2 Q 132.9 -64.2 132.9 -58.1 Z M 184.3 -55.8 L 184.3 -55.8 L 184.3 -55.8 Q 185.9 -54.7 185.9 -52.3 L 185.9 -52.3 L 185.9 -52.3 Q 185.9 -49.9 184.6 -48.4 L 184.6 -48.4 L 184.6 -48.4 Q 183.4 -46.9 181.4 -45.8 L 181.4 -45.8 L 181.4 -45.8 Q 177.3 -43.7 172.9 -43.7 L 172.9 -43.7 L 172.9 -43.7 Q 168.5 -43.7 165.9 -44.7 L 165.9 -44.7 L 165.9 -44.7 Q 163.3 -45.6 161.6 -47.4 L 161.6 -47.4 L 161.6 -47.4 Q 158.2 -50.8 158.2 -57 L 158.2 -57 L 158.2 -57 Q 158.2 -66.7 163.5 -72.6 L 163.5 -72.6 L 163.5 -72.6 Q 169.1 -78.9 178.9 -78.9 L 178.9 -78.9 L 178.9 -78.9 Q 185 -78.9 188 -76.4 L 188 -76.4 L 188 -76.4 Q 190.2 -74.4 190.2 -71.3 L 190.2 -71.3 L 190.2 -71.3 Q 190.2 -60 170.7 -60 L 170.7 -60 L 170.7 -60 Q 170.5 -58.4 170.5 -57 L 170.5 -57 L 170.5 -57 Q 170.5 -54 171.8 -52.9 L 171.8 -52.9 L 171.8 -52.9 Q 173.1 -51.8 175.5 -51.8 L 175.5 -51.8 L 175.5 -51.8 Q 178 -51.8 180.6 -52.9 L 180.6 -52.9 L 180.6 -52.9 Q 183.2 -54 184.3 -55.8 Z M 171.2 -62.8 L 171.2 -62.8 L 171.2 -62.8 Q 175.7 -62.8 178.4 -65.6 L 178.4 -65.6 L 178.4 -65.6 Q 181 -68.3 181 -72.6 L 181 -72.6 L 181 -72.6 Q 181 -74.1 180.4 -74.9 L 180.4 -74.9 L 180.4 -74.9 Q 179.9 -75.7 178.8 -75.7 L 178.8 -75.7 L 178.8 -75.7 Q 177.7 -75.7 176.8 -75.2 L 176.8 -75.2 L 176.8 -75.2 Q 175.9 -74.8 174.9 -73.4 L 174.9 -73.4 L 174.9 -73.4 Q 172.5 -70.2 171.2 -62.8 Z M 211.5 -67.5 L 211.5 -67.5 L 211.5 -67.5 Q 212.4 -69.8 212.4 -71.9 L 212.4 -71.9 L 212.4 -71.9 Q 212.4 -75.7 209.3 -75.7 L 209.3 -75.7 L 209.3 -75.7 Q 207.7 -75.7 206.4 -74.2 L 206.4 -74.2 L 206.4 -74.2 Q 205.1 -72.8 205.1 -71 L 205.1 -71 L 205.1 -71 Q 205.1 -69.7 206.1 -68.7 L 206.1 -68.7 L 206.1 -68.7 Q 207.6 -67.3 211.4 -65 L 211.4 -65 L 211.4 -65 Q 215.2 -62.7 216.6 -60.8 L 216.6 -60.8 L 216.6 -60.8 Q 218 -58.9 218 -56.3 L 218 -56.3 L 218 -56.3 Q 218 -53.7 216.8 -51.3 L 216.8 -51.3 L 216.8 -51.3 Q 215.5 -49 213.3 -47.3 L 213.3 -47.3 L 213.3 -47.3 Q 208.5 -43.7 200.8 -43.7 L 200.8 -43.7 L 200.8 -43.7 Q 196.7 -43.7 193.5 -45.9 L 193.5 -45.9 L 193.5 -45.9 Q 190.3 -48 190.3 -50.5 L 190.3 -50.5 L 190.3 -50.5 Q 190.3 -53 192.1 -54.5 L 192.1 -54.5 L 192.1 -54.5 Q 193.9 -55.9 196.6 -55.9 L 196.6 -55.9 L 196.6 -55.9 Q 199.3 -55.9 201 -54.9 L 201 -54.9 L 201 -54.9 Q 200.1 -52.8 200.1 -51.4 L 200.1 -51.4 L 200.1 -51.4 Q 200.1 -47.2 203.7 -47.2 L 203.7 -47.2 L 203.7 -47.2 Q 205.2 -47.2 206.3 -48.1 L 206.3 -48.1 L 206.3 -48.1 Q 207.3 -49.1 207.3 -50.8 L 207.3 -50.8 L 207.3 -50.8 Q 207.3 -54 201.8 -57.5 L 201.8 -57.5 L 201.8 -57.5 Q 197.3 -60.4 196.3 -61.6 L 196.3 -61.6 L 196.3 -61.6 Q 194.6 -63.6 194.6 -66.2 L 194.6 -66.2 L 194.6 -66.2 Q 194.6 -68.7 195.8 -71.2 L 195.8 -71.2 L 195.8 -71.2 Q 197 -73.6 199.2 -75.3 L 199.2 -75.3 L 199.2 -75.3 Q 203.9 -78.9 212 -78.9 L 212 -78.9 L 212 -78.9 Q 216.2 -78.9 218.7 -77.3 L 218.7 -77.3 L 218.7 -77.3 Q 221.1 -75.6 221.1 -72.8 L 221.1 -72.8 L 221.1 -72.8 Q 221.1 -70 219.4 -68.4 L 219.4 -68.4 L 219.4 -68.4 Q 217.7 -66.8 214.7 -66.8 L 214.7 -66.8 L 214.7 -66.8 Q 212.5 -66.8 211.5 -67.5 Z M 262.6 -65.6 L 275.5 -66.8 L 275.5 -66.8 Q 270.9 -56.7 270.9 -44.9 L 270.9 -44.9 L 270.9 -44.9 Q 269.2 -43.7 266.7 -43.7 L 266.7 -43.7 L 266.7 -43.7 Q 264.1 -43.7 262.5 -44.9 L 262.5 -44.9 L 262.5 -44.9 Q 260.9 -46.1 260.6 -47.3 L 260.6 -47.3 L 260.6 -47.3 Q 259 -45.6 256.4 -44.7 L 256.4 -44.7 L 256.4 -44.7 Q 253.8 -43.7 251.1 -43.7 L 251.1 -43.7 L 251.1 -43.7 Q 248.3 -43.7 245.9 -44.6 L 245.9 -44.6 L 245.9 -44.6 Q 243.5 -45.5 241.7 -47.5 L 241.7 -47.5 L 241.7 -47.5 Q 237.6 -51.8 237.6 -60.1 L 237.6 -60.1 L 237.6 -60.1 Q 237.6 -72.9 244.4 -80.6 L 244.4 -80.6 L 244.4 -80.6 Q 251.5 -88.5 263.9 -88.5 L 263.9 -88.5 L 263.9 -88.5 Q 272.6 -88.5 275.6 -84 L 275.6 -84 L 275.6 -84 Q 276.6 -82.6 276.6 -80.9 L 276.6 -80.9 L 276.6 -80.9 Q 276.6 -79.2 275.9 -77.8 L 275.9 -77.8 L 275.9 -77.8 Q 275.1 -76.4 274 -75.2 L 274 -75.2 L 274 -75.2 Q 271.2 -72.6 267.8 -72.6 L 267.8 -72.6 L 267.8 -72.6 Q 266.5 -72.6 265.2 -73.1 L 265.2 -73.1 L 265.2 -73.1 Q 265.5 -75 265.5 -77.3 L 265.5 -77.3 L 265.5 -77.3 Q 265.5 -79.5 265.3 -80.5 L 265.3 -80.5 L 265.3 -80.5 Q 265.1 -81.5 264.8 -82.4 L 264.8 -82.4 L 264.8 -82.4 Q 263.9 -84.1 262.1 -84.1 L 262.1 -84.1 L 262.1 -84.1 Q 260.3 -84.1 258.3 -82.1 L 258.3 -82.1 L 258.3 -82.1 Q 256.3 -80.2 254.7 -77 L 254.7 -77 L 254.7 -77 Q 251.1 -69.8 251.1 -61.2 L 251.1 -61.2 L 251.1 -61.2 Q 251.1 -57.2 252.7 -54.4 L 252.7 -54.4 L 252.7 -54.4 Q 254.3 -51.3 257.3 -51.3 L 257.3 -51.3 L 257.3 -51.3 Q 258.3 -51.3 259.2 -51.8 L 259.2 -51.8 L 259.2 -51.8 Q 260.2 -52.4 260.5 -52.7 L 260.5 -52.7 L 262.6 -65.6 Z M 281.4 -46.9 L 281.4 -46.9 L 281.4 -46.9 Q 279.9 -48.6 279.3 -51.2 L 279.3 -51.2 L 279.3 -51.2 Q 278.6 -53.8 278.6 -58.1 L 278.6 -58.1 L 278.6 -58.1 Q 278.6 -62.4 280.1 -66.3 L 280.1 -66.3 L 280.1 -66.3 Q 281.5 -70.2 284.2 -73 L 284.2 -73 L 284.2 -73 Q 289.7 -78.9 298.8 -78.9 L 298.8 -78.9 L 298.8 -78.9 Q 302.1 -78.9 304.4 -77.8 L 304.4 -77.8 L 315.4 -78.9 L 310.7 -54 L 310.7 -54 Q 310.5 -53.2 310.5 -51.8 L 310.5 -51.8 L 310.5 -51.8 Q 310.5 -50.4 311.3 -49.5 L 311.3 -49.5 L 311.3 -49.5 Q 312.2 -48.6 313.5 -48.5 L 313.5 -48.5 L 313.5 -48.5 Q 312.8 -46.3 310.5 -45 L 310.5 -45 L 310.5 -45 Q 308.2 -43.7 305.5 -43.7 L 305.5 -43.7 L 305.5 -43.7 Q 302.9 -43.7 301.1 -44.7 L 301.1 -44.7 L 301.1 -44.7 Q 299.4 -45.7 298.9 -47.4 L 298.9 -47.4 L 298.9 -47.4 Q 297.9 -45.8 295.7 -44.7 L 295.7 -44.7 L 295.7 -44.7 Q 293.5 -43.7 290.6 -43.7 L 290.6 -43.7 L 290.6 -43.7 Q 287.7 -43.7 285.3 -44.5 L 285.3 -44.5 L 285.3 -44.5 Q 282.9 -45.3 281.4 -46.9 Z M 294.9 -72.9 L 294.9 -72.9 L 294.9 -72.9 Q 294.2 -71.8 293.6 -69.8 L 293.6 -69.8 L 293.6 -69.8 Q 292.9 -67.9 291.9 -62.6 L 291.9 -62.6 L 291.9 -62.6 Q 290.8 -57.4 290.8 -53.7 L 290.8 -53.7 L 290.8 -53.7 Q 290.8 -50 291.4 -48.9 L 291.4 -48.9 L 291.4 -48.9 Q 292 -47.8 293 -47.8 L 293 -47.8 L 293 -47.8 Q 295 -47.8 296.5 -49.8 L 296.5 -49.8 L 296.5 -49.8 Q 298 -51.7 298.6 -55.2 L 298.6 -55.2 L 302 -73.9 L 302 -73.9 Q 300.7 -75.1 299.1 -75.1 L 299.1 -75.1 L 299.1 -75.1 Q 297.5 -75.1 296.6 -74.6 L 296.6 -74.6 L 296.6 -74.6 Q 295.7 -74.1 294.9 -72.9 Z M 334.1 -48.5 L 334.1 -48.5 L 334.1 -48.5 Q 332.2 -43.7 325.8 -43.7 L 325.8 -43.7 L 325.8 -43.7 Q 322.6 -43.7 320.6 -46 L 320.6 -46 L 320.6 -46 Q 318.9 -47.8 318.9 -49.9 L 318.9 -49.9 L 318.9 -49.9 Q 318.9 -54.7 321.1 -65.2 L 321.1 -65.2 L 325.8 -89.8 L 338.8 -91.1 L 332.6 -58.7 L 332.6 -58.7 Q 331.5 -54 331.5 -52.3 L 331.5 -52.3 L 331.5 -52.3 Q 331.5 -48.6 334.1 -48.5 Z M 354.9 -48.5 L 354.9 -48.5 L 354.9 -48.5 Q 352.9 -43.7 346.6 -43.7 L 346.6 -43.7 L 346.6 -43.7 Q 343.4 -43.7 341.3 -46 L 341.3 -46 L 341.3 -46 Q 339.6 -47.8 339.6 -49.9 L 339.6 -49.9 L 339.6 -49.9 Q 339.6 -54.7 341.9 -65.2 L 341.9 -65.2 L 346.6 -89.8 L 359.5 -91.1 L 353.3 -58.7 L 353.3 -58.7 Q 352.3 -54 352.3 -52.3 L 352.3 -52.3 L 352.3 -52.3 Q 352.3 -48.6 354.9 -48.5 Z M 386.2 -55.8 L 386.2 -55.8 L 386.2 -55.8 Q 387.8 -54.7 387.8 -52.3 L 387.8 -52.3 L 387.8 -52.3 Q 387.8 -49.9 386.6 -48.4 L 386.6 -48.4 L 386.6 -48.4 Q 385.4 -46.9 383.4 -45.8 L 383.4 -45.8 L 383.4 -45.8 Q 379.3 -43.7 374.9 -43.7 L 374.9 -43.7 L 374.9 -43.7 Q 370.5 -43.7 367.9 -44.7 L 367.9 -44.7 L 367.9 -44.7 Q 365.3 -45.6 363.6 -47.4 L 363.6 -47.4 L 363.6 -47.4 Q 360.2 -50.8 360.2 -57 L 360.2 -57 L 360.2 -57 Q 360.2 -66.7 365.4 -72.6 L 365.4 -72.6 L 365.4 -72.6 Q 371.1 -78.9 380.9 -78.9 L 380.9 -78.9 L 380.9 -78.9 Q 386.9 -78.9 389.9 -76.4 L 389.9 -76.4 L 389.9 -76.4 Q 392.2 -74.4 392.2 -71.3 L 392.2 -71.3 L 392.2 -71.3 Q 392.2 -60 372.7 -60 L 372.7 -60 L 372.7 -60 Q 372.5 -58.4 372.5 -57 L 372.5 -57 L 372.5 -57 Q 372.5 -54 373.8 -52.9 L 373.8 -52.9 L 373.8 -52.9 Q 375.1 -51.8 377.5 -51.8 L 377.5 -51.8 L 377.5 -51.8 Q 380 -51.8 382.6 -52.9 L 382.6 -52.9 L 382.6 -52.9 Q 385.1 -54 386.2 -55.8 Z M 373.2 -62.8 L 373.2 -62.8 L 373.2 -62.8 Q 377.7 -62.8 380.3 -65.6 L 380.3 -65.6 L 380.3 -65.6 Q 383 -68.3 383 -72.6 L 383 -72.6 L 383 -72.6 Q 383 -74.1 382.4 -74.9 L 382.4 -74.9 L 382.4 -74.9 Q 381.9 -75.7 380.8 -75.7 L 380.8 -75.7 L 380.8 -75.7 Q 379.7 -75.7 378.8 -75.2 L 378.8 -75.2 L 378.8 -75.2 Q 377.9 -74.8 376.9 -73.4 L 376.9 -73.4 L 376.9 -73.4 Q 374.5 -70.2 373.2 -62.8 Z M 414.4 -63 L 414.4 -63 L 414.4 -63 Q 416.7 -67.1 416.7 -71.2 L 416.7 -71.2 L 416.7 -71.2 Q 416.7 -74 414.7 -74 L 414.7 -74 L 414.7 -74 Q 413.2 -74 411.6 -71.4 L 411.6 -71.4 L 411.6 -71.4 Q 409.9 -68.7 409.4 -65.4 L 409.4 -65.4 L 406.1 -45 L 392.8 -43.7 L 399.4 -77.6 L 409.9 -78.9 L 408.8 -72.5 L 408.8 -72.5 Q 411.9 -78.9 418.9 -78.9 L 418.9 -78.9 L 418.9 -78.9 Q 422.7 -78.9 424.7 -77 L 424.7 -77 L 424.7 -77 Q 426.7 -75.1 426.7 -71.1 L 426.7 -71.1 L 426.7 -71.1 Q 426.7 -67.2 424.1 -64.7 L 424.1 -64.7 L 424.1 -64.7 Q 421.5 -62.2 417.1 -62.2 L 417.1 -62.2 L 417.1 -62.2 Q 415.2 -62.2 414.4 -63 Z M 448.1 -52.2 L 448.1 -52.2 L 448.1 -52.2 Q 444.7 -48.8 438.7 -48.8 L 438.7 -48.8 L 438.7 -48.8 Q 431 -48.8 429.4 -54.3 L 429.4 -54.3 L 429.4 -54.3 Q 428.9 -56 428.9 -57.9 L 428.9 -57.9 L 428.9 -57.9 Q 428.9 -59.7 429.3 -61.6 L 429.3 -61.6 L 432.3 -77.6 L 445.3 -78.9 L 441.8 -60.3 L 441.8 -60.3 Q 441.7 -59.5 441.5 -58.6 L 441.5 -58.6 L 441.5 -58.6 Q 441.3 -57.7 441.3 -56.7 L 441.3 -56.7 L 441.3 -56.7 Q 441.3 -55.8 441.6 -55.2 L 441.6 -55.2 L 441.6 -55.2 Q 441.9 -54.6 442.4 -54.2 L 442.4 -54.2 L 442.4 -54.2 Q 443.1 -53.7 444.5 -53.7 L 444.5 -53.7 L 444.5 -53.7 Q 445.9 -53.7 447.1 -55.4 L 447.1 -55.4 L 447.1 -55.4 Q 448.3 -57 448.8 -59.9 L 448.8 -59.9 L 452.3 -77.6 L 465 -78.9 L 460.2 -53.8 L 460.2 -53.8 Q 457.8 -41.5 452.9 -36.6 L 452.9 -36.6 L 452.9 -36.6 Q 450.4 -34.1 447.2 -33.1 L 447.2 -33.1 L 447.2 -33.1 Q 444 -32.1 439.8 -32.1 L 439.8 -32.1 L 439.8 -32.1 Q 433.1 -32.1 429.2 -34.2 L 429.2 -34.2 L 429.2 -34.2 Q 425.4 -36.4 425.4 -39.9 L 425.4 -39.9 L 425.4 -39.9 Q 425.4 -42.5 427.4 -44 L 427.4 -44 L 427.4 -44 Q 429.4 -45.5 432.4 -45.5 L 432.4 -45.5 L 432.4 -45.5 Q 435.1 -45.5 437.2 -44.4 L 437.2 -44.4 L 437.2 -44.4 Q 438.4 -43.7 439 -42.8 L 439 -42.8 L 439 -42.8 Q 437.5 -41.5 437.5 -39.4 L 437.5 -39.4 L 437.5 -39.4 Q 437.5 -36.6 440.1 -36.6 L 440.1 -36.6 L 440.1 -36.6 Q 444.3 -36.6 446.7 -46.3 L 446.7 -46.3 L 446.7 -46.3 Q 447.4 -49.2 448.1 -52.2 Z" fill="url(#editing-outline-gradient)"></path></g></g><style>text {
  font-size: 64px;
  font-family: Arial Black;
  dominant-baseline: central;
  text-anchor: middle;
}</style></svg>